# xmcd
#
# Track frame offsets:
#	150
#	9532
#	23784
#	37930
#	52280
#	69068
#	75447
#	95352
#	115096
#	131341
#	145017
#	155190
#	180152
#	192007
#	206783
#	221452
#	236756
#
# Disc length: 3362 seconds
#
# Revision: 1
# Processed by: cddbd v1.5.2PL0 Copyright (c) Steve Scherf et al.
# Submitted via: audiograbber 1.83.01
#
DISCID=da0d2011
DTITLE=Sarah Savoy and The Francadians - Off To The Honky Tonk
DYEAR=2008
DGENRE=Cajun
TTITLE0=Hello Baby
TTITLE1=Duralde Waltz
TTITLE2=Un Beau Matin Dans Juin
TTITLE3=Klein Two-Step
TTITLE4=Matchbox
TTITLE5=Mechant Ivrogne
TTITLE6=Your Cheating Heart
TTITLE7=Chanson Pour Ma Famille
TTITLE8=Autour Minuit (Around Midnight)
TTITLE9=Je Veux Plus Te Voir
TTITLE10=Gone Sur Les Grands Chemins
TTITLE11=Buvons Un Coup
TTITLE12=Avant Your Own Bussiness
TTITLE13=Mind Your Own Bussiness
TTITLE14=Je Suis Contente
TTITLE15=Flip Flop and Fly
TTITLE16=Dis Bye Bye
EXTD=
EXTT0=
EXTT1=
EXTT2=
EXTT3=
EXTT4=
EXTT5=
EXTT6=
EXTT7=
EXTT8=
EXTT9=
EXTT10=
EXTT11=
EXTT12=
EXTT13=
EXTT14=
EXTT15=
EXTT16=
PLAYORDER=
